<svg width="16" height="19" viewBox="0 0 16 19" fill="none" xmlns="http://www.w3.org/2000/svg">
<path d="M4.53639 3.6C4.43639 3.6 4.39139 3.55 4.40139 3.45C4.52139 2.37 4.91639 1.525 5.58639 0.914999C6.26638 0.305 7.20138 0 8.39138 0C9.10138 0 9.73138 0.124999 10.2814 0.374999C10.8414 0.625 11.2764 0.99 11.5864 1.47C11.9064 1.95 12.0664 2.53 12.0664 3.21C12.0664 3.93 11.9164 4.53 11.6164 5.01C11.3164 5.48 10.8914 5.855 10.3414 6.135C9.80138 6.415 9.17138 6.62 8.45138 6.75C8.00138 6.84 7.62638 6.94 7.32638 7.05C7.02638 7.16 6.80138 7.325 6.65138 7.545C6.51138 7.765 6.44138 8.09 6.44138 8.52V9.015H12.0064C12.1064 9.015 12.1564 9.065 12.1564 9.165V10.665C12.1564 10.765 12.1064 10.815 12.0064 10.815H4.61139C4.51139 10.815 4.46139 10.765 4.46139 10.665V8.73C4.46139 7.93 4.61139 7.285 4.91139 6.795C5.21139 6.295 5.64639 5.91 6.21638 5.64C6.79638 5.36 7.50638 5.155 8.34638 5.025C8.94638 4.935 9.38138 4.73 9.65138 4.41C9.93138 4.09 10.0714 3.705 10.0714 3.255C10.0714 2.835 9.92138 2.49 9.62138 2.22C9.33138 1.94 8.90638 1.8 8.34638 1.8C7.72638 1.8 7.25138 1.945 6.92138 2.235C6.59138 2.525 6.39138 2.93 6.32138 3.45C6.31138 3.55 6.25638 3.6 6.15638 3.6H4.53639Z" fill="#1DA86D"/>
<path d="M14.2499 12.3145V1H16V14.1142H8.99993V19H6.99932V14.1142H0V1H1.75049V12.3145H14.2499Z" fill="#1DA86D"/>
</svg>
