<svg width="16" height="18" viewBox="0 0 16 18" fill="none" xmlns="http://www.w3.org/2000/svg">
<path fill-rule="evenodd" clip-rule="evenodd" d="M14.2499 0V11.3145H1.75049V0H0V13.1142H6.99932V18H8.99993V13.1142H16V0H14.2499ZM9.6518 5.34947L8.93926 4.637L8.54412 5.02886L9.25666 5.74133L8.68339 6.31455L7.97085 5.60532L7.57572 5.99718L8.28825 6.70965L7.71498 7.28288L7.00244 6.57364L6.32229 7.25373L5.74902 6.67727L6.42593 5.99718L5.71339 5.2847L6.2899 4.71148L7.00244 5.42396L7.39434 5.02886L6.68504 4.31638L7.25831 3.74316L7.97085 4.45564L8.36599 4.06086L7.65345 3.34806L8.22672 2.77484L8.93926 3.48732L9.61941 2.80723L10.1927 3.38045L9.51253 4.06086L10.2251 4.77302L9.6518 5.34947ZM12.502 0.546735L12.4534 0.498481C11.9837 0.103057 11.2906 -0.0394384 10.2413 0.00913954C8.32064 0.0936651 6.57492 0.84468 5.18547 2.19515C3.8446 3.578 3.09319 5.32033 3.00898 7.23754C2.97659 8.00507 3.00898 8.86975 3.49804 9.45269L3.54986 9.50127C3.95796 9.84455 4.52151 10 5.37332 10C5.49963 10 5.62595 9.99676 5.76198 9.99028C7.67936 9.90608 9.42508 9.15474 10.8145 7.80428C12.1554 6.42143 12.9068 4.6791 12.991 2.76189C13.0234 1.99436 12.991 1.12967 12.502 0.546735Z" fill="#1DA86D"/>
</svg>
