<svg width="11" height="15" viewBox="0 0 11 15" fill="none" xmlns="http://www.w3.org/2000/svg">
<path d="M0.181818 10.02C0.0484849 10.02 -0.0115151 10.0867 0.00181816 10.22C0.175152 11.5933 0.735152 12.6733 1.68182 13.46C2.64182 14.2333 3.91515 14.62 5.50182 14.62C6.51515 14.62 7.41515 14.46 8.20182 14.14C9.00182 13.8067 9.62849 13.3267 10.0818 12.7C10.5485 12.0733 10.7818 11.3067 10.7818 10.4C10.7818 9.84 10.6885 9.32 10.5018 8.84C10.3285 8.36 10.0152 7.94 9.56182 7.58C9.10849 7.20667 8.46848 6.90667 7.64182 6.68L7.68182 7.34C8.70848 6.95333 9.39515 6.46667 9.74182 5.88C10.1018 5.28 10.2818 4.6 10.2818 3.84C10.2818 3 10.0685 2.3 9.64182 1.74C9.22849 1.16667 8.65515 0.733332 7.92182 0.439999C7.20182 0.146666 6.38848 0 5.48182 0C3.98849 0 2.78848 0.38 1.88182 1.14C0.975151 1.88667 0.428485 2.92 0.241818 4.24C0.228485 4.37333 0.288485 4.44 0.421818 4.44H2.60182C2.72182 4.44 2.79515 4.37333 2.82182 4.24C2.91515 3.66667 3.18182 3.22 3.62182 2.9C4.06182 2.56667 4.66849 2.4 5.44182 2.4C6.16182 2.4 6.71515 2.56667 7.10182 2.9C7.48849 3.22 7.68182 3.64 7.68182 4.16C7.68182 4.64 7.53515 5.06 7.24182 5.42C6.94848 5.76667 6.44849 5.94 5.74182 5.94H3.86182C3.72848 5.94 3.66182 6.00667 3.66182 6.14V8.06C3.66182 8.19333 3.72848 8.26 3.86182 8.26H5.76182C6.36182 8.26 6.84182 8.34667 7.20182 8.52C7.56182 8.69333 7.81515 8.92667 7.96182 9.22C8.12182 9.51333 8.20182 9.82667 8.20182 10.16C8.20182 10.7733 7.97515 11.2733 7.52182 11.66C7.08182 12.0333 6.39515 12.22 5.46182 12.22C4.58182 12.22 3.90182 12.0467 3.42182 11.7C2.95515 11.34 2.67515 10.8467 2.58182 10.22C2.56849 10.0867 2.49515 10.02 2.36182 10.02H0.181818Z" fill="#1DA86D"/>
</svg>
