<svg width="20" height="20" viewBox="0 0 20 20" fill="none" xmlns="http://www.w3.org/2000/svg">
<path fill-rule="evenodd" clip-rule="evenodd" d="M13.3036 10.6989L11.8785 9.27399L11.0882 10.0577L12.5133 11.4827L11.3668 12.6291L9.9417 11.2106L9.15143 11.9944L10.5765 13.4193L9.42997 14.5657L8.00489 13.1473L6.64458 14.5075L5.49804 13.3545L6.85187 11.9944L5.42679 10.5694L6.57981 9.42297L8.00489 10.8479L8.78868 10.0577L7.37008 8.63276L8.51662 7.48633L9.9417 8.91128L10.732 8.12173L9.30689 6.69613L10.4534 5.54969L11.8785 6.97464L13.2388 5.61446L14.3854 6.7609L13.0251 8.12173L14.4501 9.54603L13.3036 10.6989ZM19.0039 1.09347L18.9067 0.996962C17.9675 0.206114 16.5813 -0.078877 14.4825 0.0182789C10.6413 0.18733 7.14984 1.68936 4.37093 4.39029C1.68919 7.156 0.186382 10.6407 0.0179635 14.4751C-0.0468128 16.0101 0.0179635 17.7395 0.996086 18.9054L1.09973 19.0025C1.91591 19.6891 3.04302 20 4.74664 20C4.99927 20 5.25189 19.9935 5.52395 19.9806C9.35871 19.8122 12.8502 18.3095 15.6291 15.6086C18.3108 12.8429 19.8136 9.3582 19.982 5.52378C20.0468 3.98871 19.982 2.25934 19.0039 1.09347Z" fill="#1DA86D"/>
</svg>
