<svg width="20" height="20" viewBox="0 0 20 20" fill="none" xmlns="http://www.w3.org/2000/svg">
<path fill-rule="evenodd" clip-rule="evenodd" d="M15.2807 13.4672L14.2763 12.4663L13.7194 13.0168L14.7237 14.0177L13.9157 14.8229L12.9114 13.8266L12.3544 14.3771L13.3587 15.3779L12.5507 16.1831L11.5464 15.1868L10.5877 16.1422L9.77966 15.3324L10.7338 14.3771L9.72945 13.3762L10.542 12.571L11.5464 13.5718L12.0988 13.0168L11.099 12.016L11.907 11.2107L12.9114 12.2116L13.4683 11.657L12.464 10.6557L13.272 9.85049L14.2763 10.8513L15.235 9.89598L16.043 10.7012L15.0844 11.657L16.0887 12.6574L15.2807 13.4672ZM19.298 6.72056L19.2295 6.65278C18.5676 6.09731 17.5906 5.89714 16.1115 5.96538C13.4044 6.08411 10.9438 7.1391 8.98533 9.03616C7.09535 10.9787 6.03624 13.4262 5.91755 16.1194C5.87189 17.1976 5.91755 18.4123 6.60688 19.2312L6.67992 19.2994C7.25513 19.7816 8.04947 20 9.2501 20C9.42815 20 9.60619 19.9955 9.79792 19.9864C12.5005 19.8681 14.9611 18.8126 16.9196 16.9156C18.8095 14.973 19.8686 12.5255 19.9873 9.83229C20.033 8.7541 19.9873 7.53944 19.298 6.72056ZM13.5263 0L14.7722 1.24163L1.24584 14.7222L0 13.4806L13.5263 0Z" fill="#1DA86D"/>
</svg>
