<svg width="11" height="15" viewBox="0 0 11 15" fill="none" xmlns="http://www.w3.org/2000/svg">
<path d="M0.00181819 4.6C-0.0115152 4.73333 0.0484849 4.8 0.181818 4.8H2.34182C2.47515 4.8 2.54849 4.73333 2.56182 4.6C2.65515 3.90667 2.92182 3.36667 3.36182 2.98C3.80182 2.59333 4.43515 2.4 5.26182 2.4C6.00849 2.4 6.57515 2.58667 6.96182 2.96C7.36182 3.32 7.56182 3.78 7.56182 4.34C7.56182 4.94 7.37515 5.45333 7.00182 5.88C6.64182 6.30667 6.06182 6.58 5.26182 6.7C4.14182 6.87333 3.19515 7.14667 2.42182 7.52C1.66182 7.88 1.08182 8.39333 0.681818 9.06C0.281818 9.71333 0.0818182 10.5733 0.0818182 11.64V14.22C0.0818182 14.3533 0.148485 14.42 0.281818 14.42H10.1418C10.2752 14.42 10.3418 14.3533 10.3418 14.22V12.22C10.3418 12.0867 10.2752 12.02 10.1418 12.02H2.12182L2.72182 12.62V11.36C2.72182 10.7867 2.81515 10.3533 3.00182 10.06C3.20182 9.76667 3.50182 9.54667 3.90182 9.4C4.30182 9.25333 4.80182 9.12 5.40182 9C6.36182 8.82667 7.20182 8.55333 7.92182 8.18C8.65515 7.80667 9.22182 7.30667 9.62182 6.68C10.0218 6.04 10.2218 5.24 10.2218 4.28C10.2218 3.37333 10.0085 2.6 9.58182 1.96C9.16849 1.32 8.58849 0.833333 7.84182 0.499999C7.10849 0.166666 6.26849 0 5.32182 0C3.73515 0 2.48849 0.406666 1.58182 1.22C0.688485 2.03333 0.161818 3.16 0.00181819 4.6Z" fill="#1DA86D"/>
</svg>
